REM DIRINDEX 1\8,1\2\11,1\3\12,1\3\14,1\5\15,1\5\16,1\6\17,1\6\18,1\4\19,1\4\20,1\4\21,1\4\22,1\7\23,1\7\24,1\7\25,1\2\9\26,1\2\9\27,1\2\10\28,1\2\10\29,1\2\10\30,1\2\10\31,1\2\10\32,1\3\13\33,1\3\13\34,1\3\13\35
REM DIRNAME cjc123,folder01,folder02,folder03,folder04,folder05,folder06,folder07,folder08,folder09,folder10,folder11,folder12,folder13,folder14,folder15,folder16,folder17,folder18,folder19,folder20,folder21,folder22,folder23,folder24,folder25,folder26,folder27,folder28,folder29,folder30,folder31,folder32,folder33,folder34
TITLE ""
FILE "166 166_熟語UNIT6_SET4.mp3" MP3
  TRACK 01 AUDIO
    TITLE "25:cjc123_4598"
    INDEX 01 00:00:00
  TRACK 02 AUDIO
    TITLE "0:"
    INDEX 01 00:02:55
  TRACK 03 AUDIO
    TITLE "23:cjc123_4599"
    INDEX 01 00:03:31
  TRACK 04 AUDIO
    TITLE "0:"
    INDEX 01 00:05:34
  TRACK 05 AUDIO
    TITLE "24:cjc123_4600"
    INDEX 01 00:07:35
  TRACK 06 AUDIO
    TITLE "0:"
    INDEX 01 00:09:16
  TRACK 07 AUDIO
    TITLE "23:cjc123_4601"
    INDEX 01 00:11:17
  TRACK 08 AUDIO
    TITLE "0:"
    INDEX 01 00:12:67
  TRACK 09 AUDIO
    TITLE "24:cjc123_4602"
    INDEX 01 00:14:51
  TRACK 10 AUDIO
    TITLE "0:"
    INDEX 01 00:16:16
  TRACK 11 AUDIO
    TITLE "23:cjc123_4603"
    INDEX 01 00:18:11
  TRACK 12 AUDIO
    TITLE "0:"
    INDEX 01 00:19:28
  TRACK 13 AUDIO
    TITLE "24:cjc123_4604"
    INDEX 01 00:21:04
  TRACK 14 AUDIO
    TITLE "0:"
    INDEX 01 00:22:38
  TRACK 15 AUDIO
    TITLE "23:cjc123_4605"
    INDEX 01 00:24:20
  TRACK 16 AUDIO
    TITLE "0:"
    INDEX 01 00:25:70
  TRACK 17 AUDIO
    TITLE "24:cjc123_4606"
    INDEX 01 00:28:00
  TRACK 18 AUDIO
    TITLE "0:"
    INDEX 01 00:29:52
  TRACK 19 AUDIO
    TITLE "23:cjc123_4607"
    INDEX 01 00:31:59
  TRACK 20 AUDIO
    TITLE "0:"
    INDEX 01 00:33:15
  TRACK 21 AUDIO
    TITLE "24:cjc123_4608"
    INDEX 01 00:34:69
  TRACK 22 AUDIO
    TITLE "0:"
    INDEX 01 00:36:21
  TRACK 23 AUDIO
    TITLE "23:cjc123_4609"
    INDEX 01 00:38:12
  TRACK 24 AUDIO
    TITLE "0:"
    INDEX 01 00:40:58
  TRACK 25 AUDIO
    TITLE "24:cjc123_4610"
    INDEX 01 00:43:01
  TRACK 26 AUDIO
    TITLE "0:"
    INDEX 01 00:45:10
  TRACK 27 AUDIO
    TITLE "23:cjc123_4611"
    INDEX 01 00:47:28
  TRACK 28 AUDIO
    TITLE "0:"
    INDEX 01 00:48:59
  TRACK 29 AUDIO
    TITLE "24:cjc123_4612"
    INDEX 01 00:50:41
  TRACK 30 AUDIO
    TITLE "0:"
    INDEX 01 00:52:00
  TRACK 31 AUDIO
    TITLE "23:cjc123_4613"
    INDEX 01 00:53:66
  TRACK 32 AUDIO
    TITLE "0:"
    INDEX 01 00:55:22
  TRACK 33 AUDIO
    TITLE "24:cjc123_4614"
    INDEX 01 00:57:11
  TRACK 34 AUDIO
    TITLE "0:"
    INDEX 01 00:58:46
  TRACK 35 AUDIO
    TITLE "23:cjc123_4615"
    INDEX 01 01:00:37
  TRACK 36 AUDIO
    TITLE "0:"
    INDEX 01 01:01:44
  TRACK 37 AUDIO
    TITLE "24:cjc123_4616"
    INDEX 01 01:03:00
  TRACK 38 AUDIO
    TITLE "0:"
    INDEX 01 01:04:11
  TRACK 39 AUDIO
    TITLE "23:cjc123_4617"
    INDEX 01 01:05:48
  TRACK 40 AUDIO
    TITLE "0:"
    INDEX 01 01:06:61
  TRACK 41 AUDIO
    TITLE "24:cjc123_4618"
    INDEX 01 01:08:48
  TRACK 42 AUDIO
    TITLE "0:"
    INDEX 01 01:10:16
  TRACK 43 AUDIO
    TITLE "23:cjc123_4619"
    INDEX 01 01:12:19
  TRACK 44 AUDIO
    TITLE "0:"
    INDEX 01 01:14:31
  TRACK 45 AUDIO
    TITLE "24:cjc123_4620"
    INDEX 01 01:16:38
  TRACK 46 AUDIO
    TITLE "0:"
    INDEX 01 01:18:27
  TRACK 47 AUDIO
    TITLE "23:cjc123_4621"
    INDEX 01 01:20:65
  TRACK 48 AUDIO
    TITLE "0:"
    INDEX 01 01:22:31
  TRACK 49 AUDIO
    TITLE "24:cjc123_4622"
    INDEX 01 01:24:10
  TRACK 50 AUDIO
    TITLE "0:"
    INDEX 01 01:25:57
  TRACK 51 AUDIO
    TITLE "23:cjc123_4623"
    INDEX 01 01:27:46
  TRACK 52 AUDIO
    TITLE "0:"
    INDEX 01 01:28:35
  TRACK 53 AUDIO
    TITLE "24:cjc123_4624"
    INDEX 01 01:30:20
  TRACK 54 AUDIO
    TITLE "0:"
    INDEX 01 01:31:49
  TRACK 55 AUDIO
    TITLE "23:cjc123_4625"
    INDEX 01 01:33:33
  TRACK 56 AUDIO
    TITLE "0:"
    INDEX 01 01:34:46
  TRACK 57 AUDIO
    TITLE "24:cjc123_4626"
    INDEX 01 01:36:48
  TRACK 58 AUDIO
    TITLE "0:"
    INDEX 01 01:38:22
  TRACK 59 AUDIO
    TITLE "23:cjc123_4627"
    INDEX 01 01:40:31
  TRACK 60 AUDIO
    TITLE "0:"
    INDEX 01 01:41:61
  TRACK 61 AUDIO
    TITLE "24:cjc123_4628"
    INDEX 01 01:43:49
  TRACK 62 AUDIO
    TITLE "0:"
    INDEX 01 01:45:08
